<svg width="196" height="28" viewBox="0 0 196 28" fill="none" xmlns="http://www.w3.org/2000/svg">
<path d="M27.0534 8.93943C25.8826 5.91946 23.7009 3.39888 20.88 1.80716C18.0591 0.215444 14.7736 -0.348931 11.5832 0.210202C8.39288 0.769335 5.4951 2.41738 3.38364 4.87353C1.27218 7.32968 0.0776754 10.442 0.00365851 13.6801C-0.0703583 16.9182 0.980692 20.0818 2.97772 22.6319C4.97475 25.182 7.7942 26.9607 10.9557 27.665C14.1171 28.3693 17.425 27.9557 20.3157 26.4945C23.2063 25.0333 25.5009 22.6151 26.8085 19.6518L14 14L27.0534 8.93943Z" fill="#D3F85A"/>
<path d="M8 14C8 15.1046 7.10457 16 6 16C4.89543 16 4 15.1046 4 14C4 12.8954 4.89543 12 6 12C7.10457 12 8 12.8954 8 14Z" fill="#090F1D"/>
<path d="M184.363 26.1921C181.718 26.1921 180.395 24.8161 180.395 22.0641V10.9281H178.635V10.7041L184.171 6.64014H184.491V10.2881H188.491V10.9281H184.491V21.9361C184.491 23.5788 185.248 24.4001 186.763 24.4001C187.104 24.4001 187.435 24.3575 187.755 24.2721C188.075 24.1868 188.31 24.1121 188.459 24.0481C188.608 23.9628 188.704 23.8988 188.747 23.8561L188.843 23.9521C187.883 25.4455 186.39 26.1921 184.363 26.1921Z" fill="#D3F85A"/>
<path d="M167.286 25.7122V25.6482C167.776 24.0482 168.022 22.0855 168.022 19.7602V16.0482C168.022 14.2135 167.52 12.6882 166.518 11.4722V11.4082L171.99 9.64819V13.5522H172.022C172.128 13.4455 172.395 13.1469 172.822 12.6562C173.248 12.1655 173.579 11.8029 173.814 11.5682C174.07 11.3335 174.4 11.0455 174.806 10.7042C175.232 10.3629 175.659 10.1282 176.086 10.0002C176.512 9.85086 176.95 9.78686 177.398 9.80819L177.11 14.3842H176.95C176.63 14.0215 176.139 13.7015 175.478 13.4242C174.838 13.1469 174.315 13.0082 173.91 13.0082C173.355 13.0082 172.758 13.3922 172.118 14.1602V19.7602C172.118 22.3629 172.363 24.3255 172.854 25.6482V25.7122H167.286Z" fill="#D3F85A"/>
<path d="M157.127 23.9841C157.917 23.9841 158.599 23.7708 159.175 23.3441V18.3201C156.317 19.0454 154.887 20.2508 154.887 21.9361C154.887 22.5761 155.079 23.0774 155.463 23.4401C155.869 23.8028 156.423 23.9841 157.127 23.9841ZM162.279 26.1281C161.426 26.1281 160.743 25.9254 160.231 25.5201C159.719 25.1148 159.399 24.5708 159.271 23.8881C158.055 25.4241 156.53 26.1921 154.695 26.1921C153.671 26.1921 152.829 25.9468 152.167 25.4561C151.527 24.9654 151.207 24.2294 151.207 23.2481C151.207 20.6028 153.863 18.7681 159.175 17.7441V14.9281C159.175 13.9894 158.951 13.2961 158.503 12.8481C158.055 12.4001 157.277 12.1761 156.167 12.1761C154.61 12.1761 153.213 12.5708 151.975 13.3601L151.815 13.1361C153.565 10.9174 155.869 9.80811 158.727 9.80811C160.306 9.80811 161.458 10.1708 162.183 10.8961C162.909 11.6214 163.271 12.5921 163.271 13.8081V22.5121C163.271 23.4508 163.709 23.9201 164.583 23.9201C165.074 23.9201 165.543 23.7494 165.991 23.4081L166.055 23.5041C165.202 25.2534 163.943 26.1281 162.279 26.1281Z" fill="#D3F85A"/>
<path d="M142.944 10.3841C141.941 10.3841 141.152 10.8854 140.576 11.8881C140.021 12.8908 139.701 14.1708 139.616 15.7281L145.504 15.6001V14.8641C145.504 11.8774 144.651 10.3841 142.944 10.3841ZM149.568 21.2961C149.12 22.7681 148.32 23.9521 147.168 24.8481C146.037 25.7441 144.629 26.1921 142.944 26.1921C140.725 26.1921 138.923 25.4454 137.536 23.9521C136.171 22.4374 135.488 20.5494 135.488 18.2881C135.488 15.8134 136.245 13.7868 137.76 12.2081C139.275 10.6081 141.056 9.80811 143.104 9.80811C145.045 9.80811 146.613 10.4908 147.808 11.8561C149.024 13.2001 149.611 14.6828 149.568 16.3041L139.616 16.2721V16.3681C139.616 18.6721 140.096 20.3681 141.056 21.4561C142.037 22.5228 143.371 23.0561 145.056 23.0561C146.891 23.0561 148.331 22.4374 149.376 21.2001L149.568 21.2961Z" fill="white"/>
<path d="M123.02 14.5761C122.252 12.6134 121.495 11.2054 120.748 10.3521V10.2881H127.372V10.3521C127.116 10.7574 126.967 11.3014 126.924 11.9841C126.903 12.6668 127.052 13.4881 127.372 14.4481L129.772 20.7841L132.076 15.0561C132.332 14.3734 132.471 13.7014 132.492 13.0401C132.513 12.3574 132.46 11.8134 132.332 11.4081C132.204 10.9814 132.044 10.6294 131.852 10.3521V10.2881H135.532V10.3521C134.529 11.4401 133.655 12.8908 132.908 14.7041L128.364 26.0001H127.532L123.02 14.5761Z" fill="white"/>
<path d="M119.086 4.68803C119.086 5.32803 118.851 5.87203 118.382 6.32003C117.934 6.76803 117.39 6.99203 116.75 6.99203C116.11 6.99203 115.566 6.76803 115.118 6.32003C114.67 5.87203 114.446 5.32803 114.446 4.68803C114.446 4.06937 114.67 3.53603 115.118 3.08803C115.566 2.6187 116.11 2.38403 116.75 2.38403C117.39 2.38403 117.934 2.6187 118.382 3.08803C118.851 3.53603 119.086 4.06937 119.086 4.68803ZM114.254 25.648C114.766 23.7494 115.022 21.7867 115.022 19.76V16.144C115.022 14.2667 114.51 12.752 113.486 11.6V11.408L119.086 9.64803V19.76C119.086 22.3414 119.331 24.304 119.822 25.648V25.712H114.254V25.648Z" fill="white"/>
<path d="M107.926 26.1921C105.28 26.1921 103.958 24.8161 103.958 22.0641V10.9281H102.198V10.7041L107.734 6.64014H108.054V10.2881H112.054V10.9281H108.054V21.9361C108.054 23.5788 108.811 24.4001 110.326 24.4001C110.667 24.4001 110.998 24.3575 111.318 24.2721C111.638 24.1868 111.872 24.1121 112.022 24.0481C112.171 23.9628 112.267 23.8988 112.31 23.8561L112.406 23.9521C111.446 25.4455 109.952 26.1921 107.926 26.1921Z" fill="white"/>
<path d="M92.8148 23.9841C93.6042 23.9841 94.2868 23.7708 94.8628 23.3441V18.3201C92.0042 19.0454 90.5748 20.2508 90.5748 21.9361C90.5748 22.5761 90.7668 23.0774 91.1508 23.4401C91.5562 23.8028 92.1108 23.9841 92.8148 23.9841ZM97.9668 26.1281C97.1135 26.1281 96.4308 25.9254 95.9188 25.5201C95.4068 25.1148 95.0868 24.5708 94.9588 23.8881C93.7428 25.4241 92.2175 26.1921 90.3828 26.1921C89.3588 26.1921 88.5162 25.9468 87.8548 25.4561C87.2148 24.9654 86.8948 24.2294 86.8948 23.2481C86.8948 20.6028 89.5508 18.7681 94.8628 17.7441V14.9281C94.8628 13.9894 94.6388 13.2961 94.1908 12.8481C93.7428 12.4001 92.9642 12.1761 91.8548 12.1761C90.2975 12.1761 88.9002 12.5708 87.6628 13.3601L87.5028 13.1361C89.2522 10.9174 91.5562 9.80811 94.4148 9.80811C95.9935 9.80811 97.1455 10.1708 97.8708 10.8961C98.5962 11.6214 98.9588 12.5921 98.9588 13.8081V22.5121C98.9588 23.4508 99.3962 23.9201 100.271 23.9201C100.762 23.9201 101.231 23.7494 101.679 23.4081L101.743 23.5041C100.89 25.2534 99.6308 26.1281 97.9668 26.1281Z" fill="white"/>
<path d="M78.6314 10.3841C77.6287 10.3841 76.8394 10.8854 76.2634 11.8881C75.7087 12.8908 75.3887 14.1708 75.3034 15.7281L81.1914 15.6001V14.8641C81.1914 11.8774 80.338 10.3841 78.6314 10.3841ZM85.2554 21.2961C84.8074 22.7681 84.0074 23.9521 82.8554 24.8481C81.7247 25.7441 80.3167 26.1921 78.6314 26.1921C76.4127 26.1921 74.61 25.4454 73.2234 23.9521C71.858 22.4374 71.1754 20.5494 71.1754 18.2881C71.1754 15.8134 71.9327 13.7868 73.4474 12.2081C74.962 10.6081 76.7434 9.80811 78.7914 9.80811C80.7327 9.80811 82.3007 10.4908 83.4954 11.8561C84.7114 13.2001 85.298 14.6828 85.2554 16.3041L75.3034 16.2721V16.3681C75.3034 18.6721 75.7834 20.3681 76.7434 21.4561C77.7247 22.5228 79.058 23.0561 80.7434 23.0561C82.578 23.0561 84.018 22.4374 85.0634 21.2001L85.2554 21.2961Z" fill="white"/>
<path d="M59.9106 25.7122V25.6482C60.4012 24.0482 60.6466 22.0855 60.6466 19.7602V16.0482C60.6466 14.2135 60.1452 12.6882 59.1426 11.4722V11.4082L64.6146 9.64819V13.5522H64.6466C64.7532 13.4455 65.0199 13.1469 65.4466 12.6562C65.8732 12.1655 66.2039 11.8029 66.4386 11.5682C66.6946 11.3335 67.0252 11.0455 67.4306 10.7042C67.8572 10.3629 68.2839 10.1282 68.7106 10.0002C69.1372 9.85086 69.5746 9.78686 70.0226 9.80819L69.7346 14.3842H69.5746C69.2546 14.0215 68.7639 13.7015 68.1026 13.4242C67.4626 13.1469 66.9399 13.0082 66.5346 13.0082C65.9799 13.0082 65.3826 13.3922 64.7426 14.1602V19.7602C64.7426 22.3629 64.9879 24.3255 65.4786 25.6482V25.7122H59.9106Z" fill="white"/>
<path d="M56.3333 23.8561C55.7573 24.3041 54.648 24.8054 53.0053 25.3601C51.384 25.9148 49.6027 26.1921 47.6613 26.1921C43.9707 26.1921 40.9413 25.0508 38.5733 22.7681C36.2267 20.4854 35.0533 17.6054 35.0533 14.1281C35.0533 10.6508 36.2907 7.72811 38.7653 5.36011C41.24 2.99211 44.3547 1.80811 48.1093 1.80811C50.7547 1.80811 53.4533 2.26677 56.2053 3.1841L56.8453 8.72011L56.5573 8.81611C54.872 6.46944 53.4107 4.82677 52.1733 3.88811C50.936 2.94944 49.4853 2.48011 47.8213 2.48011C46.456 2.48011 45.2613 2.76811 44.2373 3.3441C43.2347 3.89877 42.4347 4.70944 41.8373 5.77611C41.24 6.84277 40.8027 8.06944 40.5253 9.45611C40.248 10.8214 40.1093 12.3788 40.1093 14.1281C40.1093 17.6481 40.7493 20.4321 42.0293 22.4801C43.3093 24.5068 45.1973 25.5201 47.6933 25.5201C49.656 25.5201 51.2987 24.8801 52.6213 23.6001C53.944 22.3201 55.2987 20.3468 56.6853 17.6801L56.9733 17.7761L56.3333 23.8561Z" fill="white"/>
</svg>
