<svg width="166" height="28" viewBox="0 0 166 28" fill="none" xmlns="http://www.w3.org/2000/svg">
<path d="M23.1886 9.66237C22.1851 7.07383 20.315 4.91333 17.8971 3.549C15.4792 2.18467 12.6631 1.70092 9.92848 2.18017C7.1939 2.65943 4.71009 4.07204 2.90026 6.17731C1.09044 8.28259 0.0665789 10.9503 0.00313587 13.7258C-0.0603072 16.5013 0.840593 19.213 2.55233 21.3988C4.26407 23.5845 6.68074 25.1092 9.39057 25.7129C12.1004 26.3166 14.9357 25.962 17.4134 24.7096C19.8912 23.4572 21.858 21.3844 22.9787 18.8444L12 14L23.1886 9.66237Z" fill="#D3F85A"/>
<path d="M6.85716 13.9999C6.85716 14.9467 6.08965 15.7142 5.14287 15.7142C4.1961 15.7142 3.42859 14.9467 3.42859 13.9999C3.42859 13.0532 4.1961 12.2856 5.14287 12.2856C6.08965 12.2856 6.85716 13.0532 6.85716 13.9999Z" fill="#090F1D"/>
<path d="M143.171 23.144C141.187 23.144 140.195 22.112 140.195 20.048V11.696H138.875V11.528L143.027 8.47998H143.267V11.216H146.267V11.696H143.267V19.952C143.267 21.184 143.835 21.8 144.971 21.8C145.227 21.8 145.475 21.768 145.715 21.704C145.955 21.64 146.131 21.584 146.243 21.536C146.355 21.472 146.427 21.424 146.459 21.392L146.531 21.464C145.811 22.584 144.691 23.144 143.171 23.144Z" fill="#D3F85A"/>
<path d="M130.363 22.7838V22.7358C130.731 21.5358 130.915 20.0638 130.915 18.3198V15.5358C130.915 14.1598 130.539 13.0158 129.787 12.1038V12.0558L133.891 10.7358V13.6638H133.915C133.995 13.5838 134.195 13.3598 134.515 12.9918C134.835 12.6238 135.083 12.3518 135.259 12.1758C135.451 11.9998 135.699 11.7838 136.003 11.5278C136.323 11.2718 136.643 11.0958 136.963 10.9998C137.283 10.8878 137.611 10.8398 137.947 10.8558L137.731 14.2878H137.611C137.371 14.0158 137.003 13.7758 136.507 13.5678C136.027 13.3598 135.635 13.2558 135.331 13.2558C134.915 13.2558 134.467 13.5438 133.987 14.1198V18.3198C133.987 20.2718 134.171 21.7438 134.539 22.7358V22.7838H130.363Z" fill="#D3F85A"/>
<path d="M122.744 21.488C123.336 21.488 123.848 21.328 124.28 21.008V17.24C122.136 17.784 121.064 18.688 121.064 19.952C121.064 20.432 121.208 20.808 121.496 21.08C121.8 21.352 122.216 21.488 122.744 21.488ZM126.608 23.096C125.968 23.096 125.456 22.944 125.072 22.64C124.688 22.336 124.448 21.928 124.352 21.416C123.44 22.568 122.296 23.144 120.92 23.144C120.152 23.144 119.52 22.96 119.024 22.592C118.544 22.224 118.304 21.672 118.304 20.936C118.304 18.952 120.296 17.576 124.28 16.808V14.696C124.28 13.992 124.112 13.472 123.776 13.136C123.44 12.8 122.856 12.632 122.024 12.632C120.856 12.632 119.808 12.928 118.88 13.52L118.76 13.352C120.072 11.688 121.8 10.856 123.944 10.856C125.128 10.856 125.992 11.128 126.536 11.672C127.08 12.216 127.352 12.944 127.352 13.856V20.384C127.352 21.088 127.68 21.44 128.336 21.44C128.704 21.44 129.056 21.312 129.392 21.056L129.44 21.128C128.8 22.44 127.856 23.096 126.608 23.096Z" fill="#D3F85A"/>
<path d="M112.106 11.288C111.354 11.288 110.762 11.664 110.33 12.416C109.914 13.168 109.674 14.128 109.61 15.296L114.026 15.2V14.648C114.026 12.408 113.386 11.288 112.106 11.288ZM117.074 19.472C116.738 20.576 116.138 21.464 115.274 22.136C114.426 22.808 113.37 23.144 112.106 23.144C110.442 23.144 109.09 22.584 108.05 21.464C107.026 20.328 106.514 18.912 106.514 17.216C106.514 15.36 107.082 13.84 108.218 12.656C109.354 11.456 110.69 10.856 112.226 10.856C113.682 10.856 114.858 11.368 115.754 12.392C116.666 13.4 117.106 14.512 117.074 15.728L109.61 15.704V15.776C109.61 17.504 109.97 18.776 110.69 19.592C111.426 20.392 112.426 20.792 113.69 20.792C115.066 20.792 116.146 20.328 116.93 19.4L117.074 19.472Z" fill="white"/>
<path d="M97.1637 14.4321C96.5877 12.9601 96.0197 11.9041 95.4597 11.2641V11.2161H100.428V11.2641C100.236 11.5681 100.124 11.9761 100.092 12.4881C100.076 13.0001 100.188 13.6161 100.428 14.3361L102.228 19.0881L103.956 14.7921C104.148 14.2801 104.252 13.7761 104.268 13.2801C104.284 12.7681 104.244 12.3601 104.148 12.0561C104.052 11.7361 103.932 11.4721 103.788 11.2641V11.2161H106.548V11.2641C105.796 12.0801 105.14 13.1681 104.58 14.5281L101.172 23.0001H100.548L97.1637 14.4321Z" fill="white"/>
<path d="M94.2128 7.01584C94.2128 7.49584 94.0368 7.90384 93.6848 8.23984C93.3488 8.57584 92.9408 8.74384 92.4608 8.74384C91.9808 8.74384 91.5728 8.57584 91.2368 8.23984C90.9008 7.90384 90.7328 7.49584 90.7328 7.01584C90.7328 6.55184 90.9008 6.15184 91.2368 5.81584C91.5728 5.46384 91.9808 5.28784 92.4608 5.28784C92.9408 5.28784 93.3488 5.46384 93.6848 5.81584C94.0368 6.15184 94.2128 6.55184 94.2128 7.01584ZM90.5888 22.7358C90.9728 21.3118 91.1648 19.8398 91.1648 18.3198V15.6078C91.1648 14.1998 90.7808 13.0638 90.0128 12.1998V12.0558L94.2128 10.7358V18.3198C94.2128 20.2558 94.3968 21.7278 94.7648 22.7358V22.7838H90.5888V22.7358Z" fill="white"/>
<path d="M85.8428 23.144C83.8588 23.144 82.8668 22.112 82.8668 20.048V11.696H81.5468V11.528L85.6988 8.47998H85.9388V11.216H88.9388V11.696H85.9388V19.952C85.9388 21.184 86.5068 21.8 87.6428 21.8C87.8988 21.8 88.1468 21.768 88.3868 21.704C88.6268 21.64 88.8028 21.584 88.9148 21.536C89.0268 21.472 89.0988 21.424 89.1308 21.392L89.2028 21.464C88.4828 22.584 87.3628 23.144 85.8428 23.144Z" fill="white"/>
<path d="M74.5097 21.488C75.1017 21.488 75.6137 21.328 76.0457 21.008V17.24C73.9017 17.784 72.8297 18.688 72.8297 19.952C72.8297 20.432 72.9737 20.808 73.2617 21.08C73.5657 21.352 73.9817 21.488 74.5097 21.488ZM78.3737 23.096C77.7337 23.096 77.2217 22.944 76.8377 22.64C76.4537 22.336 76.2137 21.928 76.1177 21.416C75.2057 22.568 74.0617 23.144 72.6857 23.144C71.9177 23.144 71.2857 22.96 70.7897 22.592C70.3097 22.224 70.0697 21.672 70.0697 20.936C70.0697 18.952 72.0617 17.576 76.0457 16.808V14.696C76.0457 13.992 75.8777 13.472 75.5417 13.136C75.2057 12.8 74.6217 12.632 73.7897 12.632C72.6217 12.632 71.5737 12.928 70.6457 13.52L70.5257 13.352C71.8377 11.688 73.5657 10.856 75.7097 10.856C76.8937 10.856 77.7577 11.128 78.3017 11.672C78.8457 12.216 79.1177 12.944 79.1177 13.856V20.384C79.1177 21.088 79.4457 21.44 80.1017 21.44C80.4697 21.44 80.8217 21.312 81.1577 21.056L81.2057 21.128C80.5657 22.44 79.6217 23.096 78.3737 23.096Z" fill="white"/>
<path d="M63.8721 11.288C63.1201 11.288 62.5281 11.664 62.0961 12.416C61.6801 13.168 61.4401 14.128 61.3761 15.296L65.7921 15.2V14.648C65.7921 12.408 65.1521 11.288 63.8721 11.288ZM68.8401 19.472C68.5041 20.576 67.9041 21.464 67.0401 22.136C66.1921 22.808 65.1361 23.144 63.8721 23.144C62.2081 23.144 60.8561 22.584 59.8161 21.464C58.7921 20.328 58.2801 18.912 58.2801 17.216C58.2801 15.36 58.8481 13.84 59.9841 12.656C61.1201 11.456 62.4561 10.856 63.9921 10.856C65.4481 10.856 66.6241 11.368 67.5201 12.392C68.4321 13.4 68.8721 14.512 68.8401 15.728L61.3761 15.704V15.776C61.3761 17.504 61.7361 18.776 62.4561 19.592C63.1921 20.392 64.1921 20.792 65.4561 20.792C66.8321 20.792 67.9121 20.328 68.6961 19.4L68.8401 19.472Z" fill="white"/>
<path d="M49.8316 22.7838V22.7358C50.1996 21.5358 50.3836 20.0638 50.3836 18.3198V15.5358C50.3836 14.1598 50.0076 13.0158 49.2556 12.1038V12.0558L53.3596 10.7358V13.6638H53.3836C53.4636 13.5838 53.6636 13.3598 53.9836 12.9918C54.3036 12.6238 54.5516 12.3518 54.7276 12.1758C54.9196 11.9998 55.1676 11.7838 55.4716 11.5278C55.7916 11.2718 56.1116 11.0958 56.4316 10.9998C56.7516 10.8878 57.0796 10.8398 57.4156 10.8558L57.1996 14.2878H57.0796C56.8396 14.0158 56.4716 13.7758 55.9756 13.5678C55.4956 13.3598 55.1036 13.2558 54.7996 13.2558C54.3836 13.2558 53.9356 13.5438 53.4556 14.1198V18.3198C53.4556 20.2718 53.6396 21.7438 54.0076 22.7358V22.7838H49.8316Z" fill="white"/>
<path d="M47.1486 21.392C46.7166 21.728 45.8846 22.104 44.6526 22.52C43.4366 22.936 42.1006 23.144 40.6446 23.144C37.8766 23.144 35.6046 22.288 33.8286 20.576C32.0686 18.864 31.1886 16.704 31.1886 14.096C31.1886 11.488 32.1166 9.29596 33.9726 7.51996C35.8286 5.74396 38.1646 4.85596 40.9806 4.85596C42.9646 4.85596 44.9886 5.19996 47.0526 5.88796L47.5326 10.04L47.3166 10.112C46.0526 8.35196 44.9566 7.11996 44.0286 6.41596C43.1006 5.71196 42.0126 5.35996 40.7646 5.35996C39.7406 5.35996 38.8446 5.57596 38.0766 6.00796C37.3246 6.42396 36.7246 7.03196 36.2766 7.83196C35.8286 8.63196 35.5006 9.55196 35.2926 10.592C35.0846 11.616 34.9806 12.784 34.9806 14.096C34.9806 16.736 35.4606 18.824 36.4206 20.36C37.3806 21.88 38.7966 22.64 40.6686 22.64C42.1406 22.64 43.3726 22.16 44.3646 21.2C45.3566 20.24 46.3726 18.76 47.4126 16.76L47.6286 16.832L47.1486 21.392Z" fill="white"/>
</svg>
