<svg width="70" height="75" viewBox="0 0 70 75" fill="none" xmlns="http://www.w3.org/2000/svg">
<g id="Group 33856">
<path id="Star 1" d="M34.9439 28L37.6448 35.2991L44.9439 38L37.6448 40.7009L34.9439 48L32.243 40.7009L24.9439 38L32.243 35.2991L34.9439 28Z" fill="white"/>
<g id="Group">
<path id="A" d="M27.8306 69.7938L28.1867 69.1392L26.5655 68.7466L26.571 69.4888C26.5798 69.8943 26.5869 70.324 26.5922 70.778C26.5897 71.2301 26.591 71.6667 26.596 72.0877L26.6427 72.099C26.8339 71.7173 27.0318 71.3248 27.2364 70.9217C27.4314 70.5244 27.6295 70.1484 27.8306 69.7938ZM31.5151 66.6116L27.2944 73.6397L25.23 73.1397L24.6923 64.9594L26.5117 65.4L26.5404 67.3207L28.8613 67.8827L29.7656 66.188L31.5151 66.6116Z" fill="white"/>
<path id="r" d="M19.9639 62.5116L16.6002 67.422L15.4122 66.6082L15.9032 65.6791L15.8636 65.6519C15.4594 65.8599 15.0776 65.9571 14.7183 65.9437C14.3545 65.9369 14.0472 65.8476 13.7964 65.6758C13.6578 65.5809 13.549 65.4919 13.4702 65.4088C13.3868 65.3323 13.3235 65.2549 13.2801 65.1767L14.3789 64.0822C14.4466 64.1674 14.5189 64.2459 14.5956 64.3179C14.6658 64.3854 14.7537 64.4552 14.8593 64.5276C15.0441 64.6542 15.2863 64.7182 15.5858 64.7198C15.8742 64.7234 16.1975 64.6055 16.5555 64.3659L18.5086 61.5147L19.9639 62.5116Z" fill="white"/>
<path id="t" d="M11.497 54.4381C11.9366 55.0284 12.082 55.5785 11.9331 56.0884C11.7795 56.5919 11.4268 57.0491 10.875 57.4601L8.94063 58.9009L9.42808 59.5554L8.37909 60.3367L7.77656 59.6483L6.38437 60.4309L5.50984 59.2568L6.78017 58.3106L5.92714 57.1654L7.03386 56.341L7.88689 57.4863L9.80201 56.0598C10.0715 55.8591 10.2265 55.6588 10.2672 55.4589C10.2967 55.2574 10.2421 55.0636 10.1035 54.8776C10.0462 54.8006 9.97919 54.7307 9.90259 54.6681C9.82122 54.599 9.74381 54.542 9.67036 54.4969L10.5352 53.5086C10.6645 53.6018 10.8153 53.7239 10.9876 53.8749C11.1551 54.0194 11.3249 54.2072 11.497 54.4381Z" fill="white"/>
<path id="w" d="M7.4906 47.4199L2.02814 50.2131L1.63264 48.5064L4.19137 47.3222C4.46889 47.2086 4.74342 47.0998 5.01496 46.9958C5.2865 46.8919 5.56492 46.7822 5.85024 46.6668L5.8394 46.62C5.53061 46.6341 5.22662 46.6512 4.92742 46.6712C4.62642 46.6835 4.33141 46.6862 4.04238 46.6792L1.20463 46.6593L0.860604 45.1746L3.39766 43.8969C3.66977 43.76 3.93978 43.6317 4.20771 43.5121C4.47383 43.3848 4.74864 43.2595 5.03215 43.1363L5.02132 43.0896C4.71252 43.1036 4.41423 43.1276 4.12644 43.1614C3.83685 43.1875 3.54155 43.2066 3.24055 43.2189L0.424472 43.2925L0.0560632 41.7026L6.17678 41.7502L6.64271 43.7609L4.44994 44.8233C4.18981 44.9411 3.92968 45.0588 3.66955 45.1766C3.40762 45.2866 3.1271 45.4049 2.828 45.5317L2.83883 45.5785C3.16322 45.5608 3.46721 45.5437 3.75082 45.5273C4.03262 45.5031 4.31623 45.4866 4.60164 45.478L7.0355 45.456L7.4906 47.4199Z" fill="white"/>
<path id="o" d="M6.8051 31.7446C6.6962 32.2367 6.47618 32.6755 6.14505 33.0611C5.80783 33.4371 5.38331 33.7078 4.8715 33.8731C4.35188 34.0367 3.77182 34.0476 3.13132 33.9059C2.483 33.7624 1.96171 33.5077 1.56745 33.1419C1.17318 32.7761 0.906421 32.3524 0.767166 31.8709C0.621828 31.3799 0.60361 30.8884 0.712514 30.3963C0.821418 29.9042 1.04448 29.4701 1.38169 29.0941C1.7111 28.7164 2.13171 28.4448 2.64352 28.2795C3.15533 28.1142 3.73539 28.1033 4.38371 28.2468C5.02421 28.3885 5.5455 28.6432 5.94757 29.0107C6.34184 29.3766 6.61251 29.8011 6.75957 30.2843C6.89883 30.7658 6.914 31.2525 6.8051 31.7446ZM5.41084 31.4361C5.48862 31.0846 5.39899 30.7861 5.14193 30.5408C4.87706 30.2937 4.49467 30.1149 3.99477 30.0043C3.48705 29.8919 3.0649 29.8927 2.72833 30.0067C2.39175 30.1206 2.18457 30.3534 2.10678 30.7049C2.02726 31.0642 2.11603 31.3665 2.37309 31.6118C2.63188 31.8494 3.01513 32.0243 3.52285 32.1367C4.02275 32.2473 4.44404 32.2504 4.7867 32.146C5.12327 32.032 5.33132 31.7954 5.41084 31.4361Z" fill="white"/>
<path id="r_2" d="M9.79881 23.4112L4.82278 20.1454L5.61289 18.9415L6.55155 19.414L6.57789 19.3739C6.36199 18.9739 6.25719 18.5941 6.26347 18.2346C6.26307 17.8707 6.34627 17.5617 6.51307 17.3075C6.60525 17.1671 6.6921 17.0566 6.77362 16.9761C6.84845 16.8913 6.92453 16.8264 7.00186 16.7815L8.11795 17.8584C8.03413 17.9278 7.957 18.0016 7.88656 18.0798C7.82051 18.1512 7.75237 18.2405 7.68214 18.3475C7.55923 18.5348 7.49997 18.7782 7.50434 19.0777C7.50642 19.3661 7.63077 19.687 7.87739 20.0402L10.7667 21.9365L9.79881 23.4112Z" fill="white"/>
<path id="k" d="M15.7207 16.0485L10.7852 9.23657L12.1748 8.22976L15.0051 12.1362L15.044 12.108L15.1827 9.08831L16.7375 7.96181L16.4829 11.1692L20.3559 12.6902L18.8109 13.8096L16.3637 12.7227L16.2513 13.8562L17.1103 15.0417L15.7207 16.0485Z" fill="white"/>
<path id="o_2" d="M28.1012 9.91695C27.6105 10.0323 27.1197 10.0245 26.6287 9.89345C26.1436 9.75278 25.7155 9.48774 25.3445 9.09834C24.9717 8.70115 24.7102 8.18327 24.56 7.5447C24.4079 6.89833 24.4112 6.31818 24.5697 5.80423C24.7283 5.29028 24.9942 4.86612 25.3676 4.53176C25.7469 4.18777 26.1819 3.95809 26.6725 3.84269C27.1631 3.7273 27.651 3.73994 28.1361 3.88062C28.6193 4.0135 29.0465 4.27465 29.4175 4.66405C29.7885 5.05345 30.05 5.57133 30.202 6.21769C30.3522 6.85627 30.3489 7.43643 30.1922 7.95816C30.0337 8.47211 29.7687 8.90016 29.3971 9.24232C29.0238 9.57668 28.5918 9.80156 28.1012 9.91695ZM27.7742 8.52688C28.1247 8.44446 28.3546 8.23422 28.4641 7.89617C28.5718 7.55033 28.5671 7.12821 28.4498 6.62981C28.3308 6.12362 28.1469 5.74363 27.8982 5.48983C27.6495 5.23603 27.3499 5.15034 26.9994 5.23276C26.6412 5.31702 26.4074 5.52817 26.2978 5.86622C26.1961 6.20244 26.2048 6.62365 26.3238 7.12984C26.4411 7.62824 26.6211 8.00914 26.8638 8.27256C27.1125 8.52636 27.416 8.61113 27.7742 8.52688Z" fill="white"/>
<path id="f" d="M37.2057 9.03771L37.8074 4.50549L37.0223 4.40125L37.1945 3.10463L37.9875 3.14939L38.0301 2.82821C38.0859 2.4079 38.2079 2.03671 38.3959 1.71466C38.5839 1.3926 38.8502 1.14954 39.1948 0.985466C39.5394 0.821393 39.9774 0.774629 40.5087 0.845176C40.7545 0.877817 40.9774 0.931617 41.1773 1.00658C41.3771 1.08153 41.5374 1.15123 41.6579 1.21566L41.1662 2.45774C41.0683 2.4044 40.9689 2.36296 40.8679 2.33341C40.768 2.29593 40.6705 2.27087 40.5753 2.25823C40.3612 2.22981 40.1857 2.2751 40.0488 2.39412C39.913 2.50522 39.8251 2.71144 39.7851 3.0128L39.7377 3.36966L40.7964 3.51023L40.6148 4.87823L39.5561 4.73766L38.9543 9.26989L37.2057 9.03771Z" fill="white"/>
<path id="t_2" d="M48.109 12.3776C47.4501 12.0495 47.072 11.6244 46.9745 11.1022C46.8842 10.5836 46.9924 10.0164 47.2991 9.40048L48.3742 7.24135L47.6437 6.87763L48.2268 5.70675L49.0752 6.04882L49.9639 4.72181L51.2744 5.37437L50.5684 6.79231L51.8467 7.42883L51.2315 8.66415L49.9533 8.02764L48.8888 10.1653C48.7391 10.4661 48.6912 10.7148 48.7452 10.9115C48.8099 11.1046 48.9461 11.2528 49.1538 11.3562C49.2397 11.399 49.331 11.4311 49.4276 11.4524C49.5314 11.4772 49.6262 11.4932 49.7121 11.5002L49.3868 12.7726C49.2294 12.7478 49.0397 12.707 48.8178 12.6501C48.603 12.5968 48.3668 12.506 48.109 12.3776Z" fill="white"/>
<path id="h" d="M54.1338 16.2346L60.3128 10.5266L61.5098 11.8224L59.9937 13.2229L59.1522 13.8859C59.4511 13.9147 59.7627 13.9808 60.0869 14.0843C60.4225 14.1882 60.726 14.387 60.9974 14.6808C61.4371 15.1568 61.596 15.6471 61.4741 16.1518C61.3635 16.657 61.035 17.162 60.4885 17.6668L57.7736 20.1747L56.5766 18.879L59.124 16.5258C59.4413 16.2326 59.618 15.9877 59.6541 15.791C59.6957 15.6002 59.6296 15.4107 59.4559 15.2227C59.3039 15.0581 59.1354 14.9524 58.9504 14.9054C58.7713 14.853 58.5491 14.8188 58.2836 14.8026L55.3308 17.5304L54.1338 16.2346Z" fill="white"/>
<path id="e" d="M61.7269 27.9029C61.5322 27.3693 61.4732 26.8458 61.5499 26.3324C61.6267 25.8191 61.8377 25.3589 62.1832 24.9518C62.5286 24.5448 63.0094 24.2289 63.6257 24.0041C64.2345 23.782 64.802 23.7154 65.3284 23.8044C65.8575 23.901 66.3126 24.1096 66.6936 24.4305C67.0822 24.7486 67.3573 25.1294 67.5191 25.5728C67.7137 26.1064 67.7539 26.5899 67.6395 27.0233C67.5354 27.4616 67.3119 27.8411 66.9691 28.162C66.6366 28.4877 66.2148 28.7438 65.7038 28.9302C65.561 28.9823 65.4154 29.0269 65.2672 29.0639C65.1264 29.0983 65.0195 29.1202 64.9463 29.1299L63.7249 25.7817C63.3465 26.0049 63.1076 26.2837 63.0081 26.618C62.9162 26.9496 62.9374 27.2995 63.0717 27.6678C63.217 28.0661 63.4877 28.4229 63.8838 28.7383L63.082 29.6567C62.7824 29.4424 62.5118 29.1792 62.2702 28.8671C62.0286 28.555 61.8475 28.2336 61.7269 27.9029ZM64.8143 25.3715L65.5505 27.3894C65.8586 27.277 66.0829 27.11 66.2235 26.8884C66.3743 26.6716 66.3894 26.3979 66.2688 26.0672C66.1756 25.8117 66.0018 25.6153 65.7474 25.4782C65.5005 25.3384 65.1895 25.3028 64.8143 25.3715Z" fill="white"/>
<path id="w_2" d="M63.8018 37.3201L69.8688 36.4077L69.7014 38.1517L66.8989 38.4613C66.5997 38.4808 66.3048 38.4967 66.0143 38.509C65.7238 38.5213 65.425 38.5368 65.1178 38.5556L65.1132 38.6033C65.4105 38.6881 65.7041 38.7686 65.9942 38.8446C66.2835 38.9286 66.564 39.0199 66.8359 39.1183L69.5202 40.039L69.3746 41.556L66.563 41.9612C66.2614 42.0046 65.9647 42.0404 65.6726 42.0686C65.3798 42.1048 65.0795 42.1363 64.7715 42.163L64.7669 42.2107C65.0642 42.2955 65.3546 42.3676 65.6382 42.427C65.9211 42.4943 66.2072 42.57 66.4965 42.654L69.1899 43.4792L69.034 45.1037L63.2457 43.1135L63.4429 41.059L65.8596 40.7485C66.1437 40.7195 66.4278 40.6905 66.7118 40.6615C66.9951 40.6405 67.2987 40.6174 67.6226 40.5922L67.6272 40.5444C67.314 40.4581 67.0204 40.3777 66.7462 40.3032C66.4713 40.2366 66.1972 40.162 65.9239 40.0796L63.6092 39.3269L63.8018 37.3201Z" fill="white"/>
<path id="e_2" d="M59.4145 52.4934C59.7071 52.0065 60.0772 51.6316 60.5247 51.3685C60.9721 51.1055 61.4627 50.9803 61.9964 50.9931C62.5301 51.0058 63.0781 51.1812 63.6403 51.5191C64.1957 51.853 64.6043 52.2525 64.866 52.7178C65.1235 53.19 65.2473 53.6751 65.2373 54.1731C65.2342 54.6753 65.111 55.1286 64.8679 55.5332C64.5752 56.02 64.2244 56.3552 63.8154 56.5387C63.4092 56.7332 62.9735 56.798 62.5085 56.7332C62.0462 56.6793 61.5819 56.5123 61.1156 56.232C60.9853 56.1537 60.8592 56.0685 60.7371 55.9765C60.622 55.8886 60.5376 55.8193 60.4842 55.7685L62.3202 52.7138C61.9088 52.5598 61.5418 52.5492 61.2192 52.6821C60.9036 52.819 60.6448 53.0555 60.4428 53.3915C60.2244 53.7549 60.117 54.1897 60.1207 54.696L58.9025 54.6497C58.8808 54.282 58.9154 53.9061 59.0062 53.522C59.0971 53.138 59.2332 52.7951 59.4145 52.4934ZM63.3241 53.3032L62.2175 55.1442C62.4986 55.3132 62.7695 55.3827 63.0302 55.3527C63.2937 55.3337 63.516 55.1733 63.6974 54.8716C63.8375 54.6385 63.8809 54.3799 63.8276 54.0959C63.7812 53.816 63.6134 53.5517 63.3241 53.3032Z" fill="white"/>
<path id="e_3" d="M51.8351 60.8403C52.2929 60.504 52.7789 60.3008 53.2932 60.2307C53.8075 60.1606 54.3084 60.2344 54.7959 60.452C55.2834 60.6697 55.7213 61.0428 56.1097 61.5715C56.4933 62.0937 56.7161 62.62 56.7781 63.1502C56.8336 63.6852 56.7607 64.1805 56.5593 64.6361C56.3627 65.0982 56.0743 65.469 55.6939 65.7484C55.2361 66.0847 54.7832 66.2586 54.335 66.2702C53.8852 66.2929 53.4582 66.1847 53.0542 65.9455C52.6484 65.7174 52.2845 65.3842 51.9624 64.9458C51.8724 64.8233 51.7889 64.6961 51.7118 64.5641C51.6394 64.4386 51.5884 64.342 51.5587 64.2746L54.4309 62.1645C54.1107 61.8637 53.7762 61.7124 53.4274 61.7105C53.0833 61.7151 52.7533 61.8335 52.4374 62.0655C52.0957 62.3166 51.8289 62.6764 51.6371 63.1449L50.5309 62.6323C50.6527 62.2847 50.8296 61.9512 51.0616 61.6319C51.2936 61.3126 51.5514 61.0487 51.8351 60.8403ZM55.1297 63.0955L53.3986 64.3672C53.5928 64.6315 53.816 64.8001 54.0681 64.873C54.3184 64.9571 54.5855 64.895 54.8691 64.6866C55.0884 64.5255 55.2282 64.3037 55.2886 64.0211C55.3537 63.7449 55.3008 63.4364 55.1297 63.0955Z" fill="white"/>
<path id="k_2" d="M44.2453 65.1307L46.2252 73.3064L44.5574 73.7103L43.422 69.0218L43.3753 69.0331L42.1006 71.7741L40.2346 72.226L41.6878 69.3553L38.6821 66.4779L40.5365 66.0289L42.3878 67.9635L42.9221 66.9575L42.5775 65.5346L44.2453 65.1307Z" fill="white"/>
</g>
</g>
</svg>
