<svg width="196" height="28" fill="none" xmlns="http://www.w3.org/2000/svg"><path d="M27.053 8.94a14 14 0 10-.245 10.712L14 14l13.053-5.06z" fill="#D3F85A"/><path d="M8 14a2 2 0 11-4 0 2 2 0 014 0z" fill="#090F1D"/><path d="M184.363 26.192c-2.645 0-3.968-1.376-3.968-4.128V10.928h-1.76v-.224l5.536-4.064h.32v3.648h4v.64h-4v11.008c0 1.643.757 2.464 2.272 2.464.341 0 .672-.042.992-.128.32-.085.555-.16.704-.224.149-.085.245-.15.288-.192l.096.096c-.96 1.493-2.453 2.24-4.48 2.24zm-17.077-.48v-.064c.49-1.6.736-3.563.736-5.888v-3.712c0-1.834-.502-3.36-1.504-4.576v-.064l5.472-1.76v3.904h.032c.106-.107.373-.405.8-.896.426-.49.757-.853.992-1.088.256-.234.586-.522.992-.864.426-.341.853-.576 1.28-.704.426-.15.864-.213 1.312-.192l-.288 4.576h-.16c-.32-.363-.811-.683-1.472-.96-.64-.277-1.163-.416-1.568-.416-.555 0-1.152.384-1.792 1.152v5.6c0 2.603.245 4.566.736 5.888v.064h-5.568zm-10.159-1.728c.79 0 1.472-.213 2.048-.64V18.32c-2.858.725-4.288 1.93-4.288 3.616 0 .64.192 1.141.576 1.504.406.363.96.544 1.664.544zm5.152 2.144c-.853 0-1.536-.203-2.048-.608-.512-.405-.832-.95-.96-1.632-1.216 1.536-2.741 2.304-4.576 2.304-1.024 0-1.866-.245-2.528-.736-.64-.49-.96-1.227-.96-2.208 0-2.645 2.656-4.48 7.968-5.504v-2.816c0-.939-.224-1.632-.672-2.08-.448-.448-1.226-.672-2.336-.672-1.557 0-2.954.395-4.192 1.184l-.16-.224c1.75-2.219 4.054-3.328 6.912-3.328 1.579 0 2.731.363 3.456 1.088.726.725 1.088 1.696 1.088 2.912v8.704c0 .939.438 1.408 1.312 1.408.491 0 .96-.17 1.408-.512l.064.096c-.853 1.75-2.112 2.624-3.776 2.624z" fill="#D3F85A"/><path d="M142.944 10.384c-1.003 0-1.792.501-2.368 1.504-.555 1.003-.875 2.283-.96 3.84l5.888-.128v-.736c0-2.987-.853-4.48-2.56-4.48zm6.624 10.912c-.448 1.472-1.248 2.656-2.4 3.552-1.131.896-2.539 1.344-4.224 1.344-2.219 0-4.021-.747-5.408-2.24-1.365-1.515-2.048-3.403-2.048-5.664 0-2.475.757-4.501 2.272-6.08 1.515-1.6 3.296-2.4 5.344-2.4 1.941 0 3.509.683 4.704 2.048 1.216 1.344 1.803 2.827 1.76 4.448l-9.952-.032v.096c0 2.304.48 4 1.44 5.088.981 1.067 2.315 1.6 4 1.6 1.835 0 3.275-.619 4.32-1.856l.192.096zm-26.548-6.72c-.768-1.963-1.525-3.37-2.272-4.224v-.064h6.624v.064c-.256.405-.405.95-.448 1.632-.021.683.128 1.504.448 2.464l2.4 6.336 2.304-5.728a6.293 6.293 0 00.416-2.016c.021-.683-.032-1.227-.16-1.632a3.739 3.739 0 00-.48-1.056v-.064h3.68v.064c-1.003 1.088-1.877 2.539-2.624 4.352L128.364 26h-.832l-4.512-11.424zm-3.934-9.888c0 .64-.235 1.184-.704 1.632a2.222 2.222 0 01-1.632.672c-.64 0-1.184-.224-1.632-.672a2.222 2.222 0 01-.672-1.632c0-.619.224-1.152.672-1.6a2.17 2.17 0 011.632-.704c.64 0 1.184.235 1.632.704.469.448.704.981.704 1.6zm-4.832 20.96c.512-1.899.768-3.861.768-5.888v-3.616c0-1.877-.512-3.392-1.536-4.544v-.192l5.6-1.76V19.76c0 2.581.245 4.544.736 5.888v.064h-5.568v-.064zm-6.328.544c-2.646 0-3.968-1.376-3.968-4.128V10.928h-1.76v-.224l5.536-4.064h.32v3.648h4v.64h-4v11.008c0 1.643.757 2.464 2.272 2.464.341 0 .672-.042.992-.128.32-.085.554-.16.704-.224.149-.085.245-.15.288-.192l.096.096c-.96 1.493-2.454 2.24-4.48 2.24zm-15.111-2.208c.79 0 1.472-.213 2.048-.64V18.32c-2.859.725-4.288 1.93-4.288 3.616 0 .64.192 1.141.576 1.504.405.363.96.544 1.664.544zm5.152 2.144c-.853 0-1.536-.203-2.048-.608-.512-.405-.832-.95-.96-1.632-1.216 1.536-2.742 2.304-4.576 2.304-1.024 0-1.867-.245-2.528-.736-.64-.49-.96-1.227-.96-2.208 0-2.645 2.656-4.48 7.968-5.504v-2.816c0-.939-.224-1.632-.672-2.08-.448-.448-1.227-.672-2.336-.672-1.558 0-2.955.395-4.192 1.184l-.16-.224c1.75-2.219 4.053-3.328 6.912-3.328 1.578 0 2.73.363 3.456 1.088.725.725 1.088 1.696 1.088 2.912v8.704c0 .939.437 1.408 1.312 1.408.491 0 .96-.17 1.408-.512l.064.096c-.853 1.75-2.112 2.624-3.776 2.624zM78.631 10.384c-1.002 0-1.792.501-2.368 1.504-.554 1.003-.874 2.283-.96 3.84l5.888-.128v-.736c0-2.987-.853-4.48-2.56-4.48zm6.624 10.912c-.448 1.472-1.248 2.656-2.4 3.552-1.13.896-2.538 1.344-4.224 1.344-2.218 0-4.021-.747-5.408-2.24-1.365-1.515-2.048-3.403-2.048-5.664 0-2.475.758-4.501 2.272-6.08 1.515-1.6 3.296-2.4 5.344-2.4 1.942 0 3.51.683 4.704 2.048 1.216 1.344 1.803 2.827 1.76 4.448l-9.952-.032v.096c0 2.304.48 4 1.44 5.088.982 1.067 2.315 1.6 4 1.6 1.835 0 3.275-.619 4.32-1.856l.192.096zM59.91 25.712v-.064c.491-1.6.737-3.563.737-5.888v-3.712c0-1.834-.502-3.36-1.504-4.576v-.064l5.472-1.76v3.904h.032c.106-.107.373-.405.8-.896.426-.49.757-.853.992-1.088.256-.234.586-.522.992-.864.426-.341.853-.576 1.28-.704a3.44 3.44 0 011.312-.192l-.288 4.576h-.16c-.32-.363-.811-.683-1.472-.96-.64-.277-1.163-.416-1.568-.416-.555 0-1.152.384-1.792 1.152v5.6c0 2.603.245 4.566.736 5.888v.064H59.91zm-3.577-1.856c-.576.448-1.685.95-3.328 1.504-1.621.555-3.402.832-5.344.832-3.69 0-6.72-1.141-9.088-3.424-2.346-2.283-3.52-5.163-3.52-8.64 0-3.477 1.238-6.4 3.712-8.768 2.475-2.368 5.59-3.552 9.344-3.552 2.646 0 5.344.459 8.096 1.376l.64 5.536-.288.096c-1.685-2.347-3.146-3.99-4.384-4.928-1.237-.939-2.688-1.408-4.352-1.408-1.365 0-2.56.288-3.584.864-1.002.555-1.802 1.365-2.4 2.432-.597 1.067-1.034 2.293-1.312 3.68-.277 1.365-.416 2.923-.416 4.672 0 3.52.64 6.304 1.92 8.352 1.28 2.027 3.168 3.04 5.664 3.04 1.963 0 3.606-.64 4.928-1.92 1.323-1.28 2.678-3.253 4.064-5.92l.288.096-.64 6.08z" fill="#fff"/></svg>