<svg width="166" height="28" fill="none" xmlns="http://www.w3.org/2000/svg"><path d="M23.189 9.662a12 12 0 10-.21 9.182L12 14l11.189-4.338z" fill="#D3F85A"/><path d="M6.857 14a1.714 1.714 0 11-3.428 0 1.714 1.714 0 013.428 0z" fill="#090F1D"/><path d="M143.171 23.144c-1.984 0-2.976-1.032-2.976-3.096v-8.352h-1.32v-.168l4.152-3.048h.24v2.736h3v.48h-3v8.256c0 1.232.568 1.848 1.704 1.848.256 0 .504-.032.744-.096s.416-.12.528-.168c.112-.064.184-.112.216-.144l.072.072c-.72 1.12-1.84 1.68-3.36 1.68zm-12.808-.36v-.048c.368-1.2.552-2.672.552-4.416v-2.784c0-1.376-.376-2.52-1.128-3.432v-.048l4.104-1.32v2.928h.024c.08-.08.28-.304.6-.672.32-.368.568-.64.744-.816.192-.176.44-.392.744-.648.32-.256.64-.432.96-.528.32-.112.648-.16.984-.144l-.216 3.432h-.12c-.24-.272-.608-.512-1.104-.72-.48-.208-.872-.312-1.176-.312-.416 0-.864.288-1.344.864v4.2c0 1.952.184 3.424.552 4.416v.048h-4.176zm-7.619-1.296c.592 0 1.104-.16 1.536-.48V17.24c-2.144.544-3.216 1.448-3.216 2.712 0 .48.144.856.432 1.128.304.272.72.408 1.248.408zm3.864 1.608c-.64 0-1.152-.152-1.536-.456-.384-.304-.624-.712-.72-1.224-.912 1.152-2.056 1.728-3.432 1.728-.768 0-1.4-.184-1.896-.552-.48-.368-.72-.92-.72-1.656 0-1.984 1.992-3.36 5.976-4.128v-2.112c0-.704-.168-1.224-.504-1.56-.336-.336-.92-.504-1.752-.504-1.168 0-2.216.296-3.144.888l-.12-.168c1.312-1.664 3.04-2.496 5.184-2.496 1.184 0 2.048.272 2.592.816.544.544.816 1.272.816 2.184v6.528c0 .704.328 1.056.984 1.056.368 0 .72-.128 1.056-.384l.048.072c-.64 1.312-1.584 1.968-2.832 1.968z" fill="#D3F85A"/><path d="M112.106 11.288c-.752 0-1.344.376-1.776 1.128-.416.752-.656 1.712-.72 2.88l4.416-.096v-.552c0-2.24-.64-3.36-1.92-3.36zm4.968 8.184c-.336 1.104-.936 1.992-1.8 2.664-.848.672-1.904 1.008-3.168 1.008-1.664 0-3.016-.56-4.056-1.68-1.024-1.136-1.536-2.552-1.536-4.248 0-1.856.568-3.376 1.704-4.56 1.136-1.2 2.472-1.8 4.008-1.8 1.456 0 2.632.512 3.528 1.536.912 1.008 1.352 2.12 1.32 3.336l-7.464-.024v.072c0 1.728.36 3 1.08 3.816.736.8 1.736 1.2 3 1.2 1.376 0 2.456-.464 3.24-1.392l.144.072zm-19.91-5.04c-.576-1.472-1.144-2.528-1.704-3.168v-.048h4.968v.048c-.192.304-.304.712-.336 1.224-.016.512.096 1.128.336 1.848l1.8 4.752 1.728-4.296a4.726 4.726 0 00.312-1.512c.016-.512-.024-.92-.12-1.224a2.805 2.805 0 00-.36-.792v-.048h2.76v.048c-.752.816-1.408 1.904-1.968 3.264L101.172 23h-.624l-3.384-8.568zm-2.951-7.416c0 .48-.176.888-.528 1.224a1.666 1.666 0 01-1.224.504c-.48 0-.888-.168-1.224-.504a1.666 1.666 0 01-.504-1.224c0-.464.168-.864.504-1.2a1.629 1.629 0 011.224-.528c.48 0 .888.176 1.224.528.352.336.528.736.528 1.2zm-3.624 15.72c.384-1.424.576-2.896.576-4.416v-2.712c0-1.408-.384-2.544-1.152-3.408v-.144l4.2-1.32v7.584c0 1.936.184 3.408.552 4.416v.048h-4.176v-.048zm-4.746.408c-1.984 0-2.976-1.032-2.976-3.096v-8.352h-1.32v-.168l4.152-3.048h.24v2.736h3v.48h-3v8.256c0 1.232.568 1.848 1.704 1.848.256 0 .504-.032.744-.096s.416-.12.528-.168c.112-.064.184-.112.216-.144l.072.072c-.72 1.12-1.84 1.68-3.36 1.68zM74.51 21.488c.592 0 1.104-.16 1.536-.48V17.24c-2.144.544-3.216 1.448-3.216 2.712 0 .48.144.856.432 1.128.304.272.72.408 1.248.408zm3.864 1.608c-.64 0-1.152-.152-1.536-.456-.384-.304-.624-.712-.72-1.224-.912 1.152-2.056 1.728-3.432 1.728-.768 0-1.4-.184-1.896-.552-.48-.368-.72-.92-.72-1.656 0-1.984 1.992-3.36 5.976-4.128v-2.112c0-.704-.168-1.224-.504-1.56-.336-.336-.92-.504-1.752-.504-1.168 0-2.216.296-3.144.888l-.12-.168c1.312-1.664 3.04-2.496 5.184-2.496 1.184 0 2.048.272 2.592.816.544.544.816 1.272.816 2.184v6.528c0 .704.328 1.056.984 1.056.368 0 .72-.128 1.056-.384l.048.072c-.64 1.312-1.584 1.968-2.832 1.968zM63.872 11.288c-.752 0-1.344.376-1.776 1.128-.416.752-.656 1.712-.72 2.88l4.416-.096v-.552c0-2.24-.64-3.36-1.92-3.36zm4.968 8.184c-.336 1.104-.936 1.992-1.8 2.664-.848.672-1.904 1.008-3.168 1.008-1.664 0-3.016-.56-4.056-1.68-1.024-1.136-1.536-2.552-1.536-4.248 0-1.856.568-3.376 1.704-4.56 1.136-1.2 2.472-1.8 4.008-1.8 1.456 0 2.632.512 3.528 1.536.912 1.008 1.352 2.12 1.32 3.336l-7.464-.024v.072c0 1.728.36 3 1.08 3.816.736.8 1.736 1.2 3 1.2 1.376 0 2.456-.464 3.24-1.392l.144.072zm-19.008 3.312v-.048c.368-1.2.552-2.672.552-4.416v-2.784c0-1.376-.376-2.52-1.128-3.432v-.048l4.104-1.32v2.928h.024c.08-.08.28-.304.6-.672.32-.368.568-.64.744-.816.192-.176.44-.392.744-.648.32-.256.64-.432.96-.528.32-.112.648-.16.984-.144l-.216 3.432h-.12c-.24-.272-.608-.512-1.104-.72-.48-.208-.872-.312-1.176-.312-.416 0-.864.288-1.344.864v4.2c0 1.952.184 3.424.552 4.416v.048h-4.176zm-2.683-1.392c-.432.336-1.264.712-2.496 1.128-1.216.416-2.552.624-4.008.624-2.768 0-5.04-.856-6.816-2.568-1.76-1.712-2.64-3.872-2.64-6.48 0-2.608.928-4.8 2.784-6.576 1.856-1.776 4.192-2.664 7.008-2.664 1.984 0 4.008.344 6.072 1.032l.48 4.152-.216.072c-1.264-1.76-2.36-2.992-3.288-3.696-.928-.704-2.016-1.056-3.264-1.056-1.024 0-1.92.216-2.688.648-.752.416-1.352 1.024-1.8 1.824-.448.8-.776 1.72-.984 2.76-.208 1.024-.312 2.192-.312 3.504 0 2.64.48 4.728 1.44 6.264.96 1.52 2.376 2.28 4.248 2.28 1.472 0 2.704-.48 3.696-1.44s2.008-2.44 3.048-4.44l.216.072-.48 4.56z" fill="#fff"/></svg>