<svg width="70" height="75" fill="none" xmlns="http://www.w3.org/2000/svg"><path d="M34.944 28l2.7 7.3 7.3 2.7-7.3 2.7-2.7 7.3-2.701-7.3-7.3-2.7 7.3-2.7 2.7-7.3zM27.83 69.794l.357-.655-1.622-.392.006.742c.009.405.016.835.021 1.289-.002.452-.001.889.004 1.31l.047.011c.19-.382.389-.774.593-1.177.195-.398.393-.774.595-1.128zm3.685-3.182l-4.22 7.028-2.065-.5-.538-8.18 1.82.44.028 1.92 2.321.563.905-1.695 1.75.424zm-11.551-4.1l-3.364 4.91-1.188-.814.491-.929-.04-.027c-.404.208-.785.305-1.145.292-.364-.007-.67-.096-.922-.268a2.047 2.047 0 01-.326-.267.94.94 0 01-.19-.232l1.099-1.095a2.199 2.199 0 00.48.446c.185.126.427.19.727.192.288.003.612-.114.97-.354l1.953-2.851 1.455.997zm-8.467-8.074c.44.59.585 1.14.436 1.65-.153.504-.506.961-1.058 1.372L8.941 58.9l.487.655-1.049.782-.602-.689-1.393.783-.874-1.174 1.27-.946-.853-1.146 1.107-.824.853 1.145 1.915-1.426c.27-.2.425-.401.465-.601a.762.762 0 00-.163-.581 1.18 1.18 0 00-.201-.21 1.895 1.895 0 00-.233-.171l.865-.988c.13.093.28.215.453.366.167.144.337.332.509.563zM7.49 47.42l-5.462 2.793-.395-1.707 2.558-1.184c.278-.113.552-.222.824-.326.272-.104.55-.214.835-.33l-.01-.046c-.31.014-.613.031-.913.051-.3.013-.596.015-.885.008l-2.837-.02-.344-1.484 2.537-1.278c.272-.137.542-.265.81-.385.266-.127.54-.252.824-.376l-.01-.046c-.31.014-.608.038-.896.071-.29.026-.584.046-.885.058l-2.817.073-.368-1.59 6.12.048.467 2.01-2.193 1.063-.78.354-.842.355.01.047.913-.052c.282-.024.565-.04.85-.049l2.434-.022.456 1.964zm-.685-15.675a2.98 2.98 0 01-.66 1.316 2.85 2.85 0 01-1.273.812c-.52.164-1.1.175-1.74.033-.649-.144-1.17-.398-1.565-.764a2.761 2.761 0 01-.8-1.271 2.904 2.904 0 01.615-2.777c.33-.378.75-.65 1.262-.815.511-.165 1.091-.176 1.74-.032.64.142 1.161.396 1.564.764.394.366.665.79.812 1.273.139.482.154.969.045 1.46zm-1.394-.309a.895.895 0 00-.27-.895c-.264-.247-.646-.426-1.146-.537-.508-.112-.93-.111-1.267.003a.895.895 0 00-.621.698c-.08.36.009.662.266.907.259.237.642.412 1.15.525.5.11.921.113 1.264.009.336-.114.544-.35.624-.71zm4.388-8.025l-4.976-3.266.79-1.203.939.472.026-.04c-.216-.4-.32-.78-.315-1.14 0-.363.083-.672.25-.927.092-.14.18-.25.26-.33a.94.94 0 01.229-.195l1.116 1.076a2.193 2.193 0 00-.436.49c-.123.187-.182.43-.178.73.002.288.127.609.373.962l2.89 1.896-.968 1.475zm5.921-7.362l-4.935-6.812 1.39-1.007 2.83 3.906.039-.028.139-3.02 1.555-1.126-.255 3.207 3.873 1.521-1.545 1.12-2.447-1.087-.113 1.133.86 1.186-1.39 1.007zm12.381-6.132a2.98 2.98 0 01-1.472-.024 2.85 2.85 0 01-1.285-.795c-.372-.397-.634-.915-.784-1.553-.152-.647-.149-1.227.01-1.74.158-.515.424-.939.798-1.273a2.904 2.904 0 012.768-.651c.483.132.91.394 1.282.783.37.39.632.907.784 1.554.15.638.147 1.218-.01 1.74a2.85 2.85 0 01-.795 1.284c-.373.335-.805.56-1.296.675zm-.327-1.39a.895.895 0 00.69-.63c.108-.347.103-.769-.014-1.267-.12-.506-.303-.886-.552-1.14A.895.895 0 0027 5.233c-.358.084-.592.295-.701.633-.102.336-.093.758.026 1.264.117.498.297.88.54 1.143.248.253.552.338.91.254zm9.432.511l.601-4.533-.785-.104.172-1.296.793.044.043-.32c.056-.421.178-.792.366-1.114.188-.322.454-.565.799-.73.344-.164.782-.21 1.314-.14.245.033.468.087.668.162.2.075.36.144.48.209l-.49 1.242a1.508 1.508 0 00-.3-.125 1.332 1.332 0 00-.292-.075c-.214-.028-.39.017-.526.136-.136.111-.224.317-.264.619l-.047.357 1.058.14-.181 1.368-1.059-.14-.602 4.532-1.748-.232zm10.903 3.34c-.659-.329-1.037-.754-1.135-1.276-.09-.518.018-1.086.325-1.702l1.075-2.159-.73-.363.583-1.171.848.342.889-1.327 1.31.652-.706 1.418 1.279.637-.616 1.235-1.278-.636-1.064 2.137c-.15.301-.198.55-.144.747.065.193.201.34.409.444.086.043.177.075.274.096.103.025.198.041.284.048l-.325 1.273a6.294 6.294 0 01-.57-.123 3.511 3.511 0 01-.708-.272zm6.025 3.857l6.179-5.708 1.197 1.295-1.516 1.4-.842.664c.3.029.61.095.935.198.335.104.639.303.91.597.44.476.599.966.477 1.47-.11.506-.439 1.011-.985 1.516l-2.715 2.508-1.197-1.296 2.547-2.353c.317-.293.494-.538.53-.735.042-.19-.024-.38-.198-.568a1.034 1.034 0 00-.506-.318 3.085 3.085 0 00-.666-.102L55.33 17.53l-1.197-1.295zm7.593 11.668a3.162 3.162 0 01-.177-1.57 2.72 2.72 0 01.633-1.381c.346-.407.826-.723 1.443-.948.608-.222 1.176-.289 1.702-.2.53.097.985.306 1.366.627.388.318.663.698.825 1.142.195.533.235 1.017.12 1.45a2.244 2.244 0 01-.67 1.139c-.332.326-.754.582-1.265.768a4.341 4.341 0 01-.758.2l-1.221-3.348c-.379.223-.617.502-.717.836-.092.332-.07.681.064 1.05.145.398.416.755.812 1.07l-.802.919a3.91 3.91 0 01-.812-.79 3.583 3.583 0 01-.543-.964zm3.087-2.531l.737 2.017c.308-.112.532-.279.672-.5.151-.217.166-.491.046-.822a1.073 1.073 0 00-.522-.589c-.246-.14-.558-.175-.933-.107zM63.802 37.32l6.067-.912-.168 1.744-2.802.31c-.3.019-.594.035-.885.047-.29.012-.589.028-.896.047l-.005.047c.297.085.591.166.881.242.29.084.57.175.842.273l2.684.921-.145 1.517-2.812.405c-.302.044-.598.08-.89.108a26.29 26.29 0 01-.901.094l-.005.048c.297.084.588.157.871.216.283.067.57.143.858.227l2.694.825-.156 1.625-5.788-1.99.197-2.055 2.417-.31.852-.088c.283-.02.587-.044.91-.069l.005-.048-.88-.24a15.454 15.454 0 01-.823-.224l-2.315-.753.193-2.007zm-4.388 15.173a3.162 3.162 0 011.11-1.125 2.719 2.719 0 011.472-.375c.534.013 1.082.188 1.644.526.556.334.964.733 1.226 1.199.258.472.381.957.371 1.455a2.622 2.622 0 01-.37 1.36c-.292.487-.643.822-1.052 1.006-.406.194-.841.259-1.306.194a3.47 3.47 0 01-1.393-.501 4.363 4.363 0 01-.632-.463l1.836-3.055c-.411-.154-.778-.165-1.1-.032-.316.137-.575.373-.777.71-.219.363-.326.798-.322 1.304l-1.218-.046a3.887 3.887 0 01.103-1.128c.091-.384.227-.727.408-1.029zm3.91.81l-1.106 1.841c.28.17.551.239.812.209.264-.02.486-.18.667-.481a1.07 1.07 0 00.13-.776c-.046-.28-.214-.544-.503-.793zM51.835 60.84c.458-.336.944-.54 1.458-.61a2.72 2.72 0 011.503.222c.487.218.925.59 1.314 1.12.383.522.606 1.048.668 1.578a2.878 2.878 0 01-.219 1.486 2.621 2.621 0 01-.865 1.112c-.458.337-.91.51-1.359.522a2.244 2.244 0 01-1.28-.325c-.407-.228-.77-.56-1.093-1a4.347 4.347 0 01-.403-.67l2.872-2.11c-.32-.301-.655-.453-1.004-.454-.344.004-.674.123-.99.355-.341.25-.608.61-.8 1.079l-1.106-.513c.122-.347.299-.68.53-1 .233-.32.49-.583.774-.792zm3.295 2.255l-1.731 1.272c.194.264.417.433.67.506.25.084.517.022.8-.186.22-.162.36-.383.42-.666.065-.276.012-.585-.16-.925zM44.245 65.13l1.98 8.176-1.668.404-1.135-4.688-.047.011-1.274 2.741-1.866.452 1.453-2.87-3.006-2.878 1.854-.45 1.852 1.935.534-1.005-.344-1.423 1.667-.404z" fill="#fff"/></svg>