<svg width="162" height="163" fill="none" xmlns="http://www.w3.org/2000/svg"><path d="M80.5 64l4.727 12.773L98 81.5l-12.773 4.727L80.5 99l-4.727-12.773L63 81.5l12.773-4.727L80.5 64zM5.762 82.22l.957.268.026-2.224-.962.229c-.525.132-1.08.27-1.67.412-.588.132-1.154.264-1.7.396v.064l1.706.42c.575.135 1.123.28 1.643.436zm5.236 3.838L.605 82.672l.033-2.832 10.47-3.141-.03 2.496-2.487.61-.037 3.184 2.472.67-.028 2.4zm.955-15.715l-7.778-1.577.382-1.881 1.396.12.012-.063c-.465-.389-.783-.807-.954-1.255-.18-.45-.23-.874-.15-1.271.044-.22.097-.4.158-.54.05-.142.113-.26.186-.353l1.915.78a2.923 2.923 0 00-.297.82c-.059.293-.012.624.142.993.146.356.459.691.94 1.006l4.515.915-.467 2.305zm4.142-14.085c-.352.915-.869 1.471-1.55 1.666-.677.186-1.443.114-2.3-.216l-3.001-1.154-.39 1.015-1.628-.626.347-1.17-1.874-1.012.7-1.822 1.972.759.684-1.777 1.717.66-.684 1.777 2.972 1.144c.418.16.755.193 1.009.096.248-.11.427-.31.538-.598.046-.12.078-.245.094-.376.02-.14.029-.269.027-.384l1.73.272a8.38 8.38 0 01-.09.77 4.688 4.688 0 01-.273.976zm3.97-9.014l-7.735-2.661 1.273-1.959 3.504 1.362c.366.161.724.324 1.075.489.351.164.714.33 1.089.498l.035-.054c-.3-.284-.597-.56-.893-.828a18.12 18.12 0 01-.826-.843l-2.606-2.743 1.107-1.704 3.574 1.254c.383.135.756.276 1.119.422.368.138.743.286 1.123.444l.035-.053a16.354 16.354 0 00-.897-.793c-.293-.254-.584-.52-.874-.798l-2.676-2.636 1.186-1.824 5.616 5.921-1.5 2.307-3.048-1.122-1.061-.423-1.12-.48-.035.054.893.829c.284.248.562.505.835.77l2.272 2.318-1.465 2.253zm12.203-15.282a3.973 3.973 0 01-1.7.983 3.8 3.8 0 01-2.013-.028c-.699-.198-1.353-.611-1.963-1.238-.617-.635-1.011-1.3-1.182-1.997a3.682 3.682 0 01.039-2.002 3.872 3.872 0 011.02-1.683 3.784 3.784 0 011.699-.96 3.682 3.682 0 012.002.016c.691.191 1.346.604 1.963 1.238.61.628 1.004 1.293 1.183 1.997a3.8 3.8 0 01-.029 2.014 3.882 3.882 0 01-1.019 1.66zm-1.327-1.365c.344-.335.463-.733.356-1.194-.114-.47-.409-.949-.885-1.438-.483-.498-.954-.806-1.412-.925-.459-.12-.86-.012-1.204.322-.352.342-.475.744-.368 1.206.114.454.413.93.896 1.427.476.489.943.801 1.402.936.458.12.863.008 1.215-.334zm8.994-5.383l-4.416-6.594 1.595-1.068.908 1.067.053-.035c-.058-.604.01-1.125.205-1.563.188-.447.451-.783.788-1.009.186-.124.35-.215.492-.271.136-.066.263-.106.381-.121l.812 1.902a2.92 2.92 0 00-.79.374c-.247.166-.447.435-.597.805-.147.355-.16.814-.041 1.375l2.564 3.83-1.954 1.308zm9.947-6.038l-4.46-10.292 2.1-.91 2.558 5.902.058-.025L51.19 9.96l2.349-1.018-1.257 4.102 4.603 3.097-2.334 1.012-2.872-2.121-.473 1.443.776 1.79-2.1.91zm16.1-5.339c-.657.142-1.31.12-1.963-.066a3.801 3.801 0 01-1.693-1.09c-.488-.537-.825-1.234-1.01-2.088-.188-.866-.17-1.64.053-2.32a3.682 3.682 0 011.093-1.679 3.872 3.872 0 011.755-.888 3.783 3.783 0 011.95.084 3.682 3.682 0 011.69 1.074c.487.528.823 1.224 1.011 2.09.186.854.168 1.627-.053 2.32a3.8 3.8 0 01-1.09 1.693 3.882 3.882 0 01-1.743.87zm-.404-1.861c.47-.102.78-.377.934-.825.152-.459.155-1.021.01-1.689-.147-.677-.383-1.188-.709-1.532-.325-.344-.723-.465-1.192-.363-.48.104-.796.38-.95.828-.143.446-.141 1.007.006 1.685.145.667.376 1.18.693 1.536.326.344.729.464 1.208.36zm10.894.191l-.24-6.091-1.055.042-.07-1.743 1.053-.122-.017-.431a3.94 3.94 0 01.227-1.546c.174-.466.468-.846.884-1.14.415-.294.98-.455 1.694-.483.33-.013.636.007.915.06.28.053.506.108.68.165l-.364 1.744a2.017 2.017 0 00-.42-.096 1.778 1.778 0 00-.402-.032c-.288.011-.508.11-.66.298-.154.177-.222.468-.207.873l.02.48 1.422-.056.073 1.838-1.423.056.24 6.092-2.35.092zm13.286.656c-.974-.118-1.64-.484-1.995-1.097-.344-.61-.462-1.372-.35-2.283l.387-3.192-1.08-.131.21-1.732 1.219.052.525-2.064 1.937.235-.254 2.097 1.89.23-.222 1.826-1.89-.23-.384 3.161c-.054.445-.004.779.152 1.002.167.214.405.34.712.377.127.015.256.014.387-.002.141-.015.268-.037.379-.067l.159 1.744c-.21.04-.466.073-.77.1a4.69 4.69 0 01-1.012-.026zm8.462 1.328l3.411-10.684 2.241.715-.837 2.622-.54 1.322c.365-.163.77-.291 1.214-.384.458-.1.941-.07 1.449.093.823.262 1.33.727 1.52 1.392.204.659.155 1.46-.146 2.405l-1.5 4.695-2.24-.716 1.406-4.405c.176-.548.22-.948.132-1.2-.077-.249-.279-.425-.604-.53a1.378 1.378 0 00-.795-.035 4.127 4.127 0 00-.841.32l-1.63 5.106-2.24-.716zm16.663 7.029c-.661-.37-1.175-.849-1.544-1.435a3.626 3.626 0 01-.559-1.946c-.004-.712.207-1.45.635-2.212.423-.754.939-1.314 1.549-1.681a3.838 3.838 0 011.925-.554 3.495 3.495 0 011.827.438c.66.371 1.121.825 1.382 1.363.276.534.379 1.112.311 1.734-.053.618-.257 1.244-.612 1.876a5.716 5.716 0 01-.592.86l-4.145-2.325c-.189.555-.188 1.045.002 1.47.195.414.521.75.976 1.005.493.277 1.077.403 1.752.378l-.013 1.625a5.178 5.178 0 01-1.507-.093 4.768 4.768 0 01-1.387-.503zm.923-5.243l2.497 1.401c.214-.381.296-.745.246-1.091-.036-.35-.259-.64-.668-.87a1.43 1.43 0 00-1.039-.143c-.371.073-.717.308-1.036.703zm8.631 11.315l3.845-7.22 1.734 1.565-1.896 3.246c-.217.336-.434.664-.652.985a61.73 61.73 0 00-.663.997l.048.043c.327-.25.646-.501.958-.752.32-.242.641-.47.962-.683l3.119-2.142 1.509 1.362-1.801 3.332a25.26 25.26 0 01-.593 1.038c-.194.342-.399.689-.615 1.04l.048.043c.327-.251.635-.505.924-.761.296-.25.605-.496.925-.739l3.024-2.227 1.615 1.458-6.731 4.615-2.043-1.844 1.589-2.834.584-.982c.202-.32.419-.663.649-1.03l-.047-.043c-.341.267-.661.517-.959.752-.289.241-.587.475-.893.702l-2.645 1.88-1.995-1.801zm13.255 14.573c-.436-.62-.693-1.273-.773-1.96a3.623 3.623 0 01.335-1.998c.304-.643.813-1.217 1.528-1.72.706-.498 1.414-.781 2.122-.85a3.852 3.852 0 011.975.332c.611.275 1.098.67 1.46 1.184.436.62.656 1.228.659 1.825a3 3 0 01-.467 1.699c-.315.535-.769 1.011-1.362 1.428a5.863 5.863 0 01-.906.52l-2.736-3.885c-.409.419-.62.86-.632 1.326-.003.459.146.901.447 1.329.325.462.798.828 1.417 1.096l-.713 1.46a5.17 5.17 0 01-1.319-.734 4.788 4.788 0 01-1.035-1.052zm3.095-4.331l1.649 2.341c.358-.251.588-.544.692-.878.119-.332.043-.69-.227-1.073a1.432 1.432 0 00-.876-.577c-.366-.095-.779-.032-1.238.187zm3.574 16.127c-.308-.692-.434-1.383-.379-2.073a3.62 3.62 0 01.717-1.894c.422-.573 1.033-1.037 1.832-1.392.79-.351 1.539-.491 2.247-.42a3.84 3.84 0 011.873.707c.546.388.947.87 1.202 1.444.308.693.405 1.332.293 1.92a3.001 3.001 0 01-.788 1.575c-.413.464-.951.843-1.613 1.137a5.875 5.875 0 01-.99.335l-1.93-4.343c-.483.332-.775.725-.877 1.178-.092.45-.032.913.18 1.39.23.517.623.968 1.178 1.35l-.983 1.296a5.188 5.188 0 01-1.152-.977 4.78 4.78 0 01-.81-1.233zm3.876-3.649l1.163 2.618c.4-.178.683-.42.85-.728.181-.302.176-.668-.015-1.097a1.428 1.428 0 00-.747-.736c-.341-.163-.758-.182-1.251-.057zm-.221 13.008l10.938-2.48.506 2.23-6.272 1.423.014.063 3.63 1.752.566 2.497-3.799-1.993-3.894 3.951-.563-2.48 2.615-2.431-1.331-.732-1.904.432-.506-2.232zm7.729 15.912l-.965-.236.047 2.223.954-.26c.52-.15 1.072-.305 1.655-.466.584-.151 1.146-.302 1.687-.452l-.001-.064c-.558-.116-1.131-.237-1.72-.364a28.494 28.494 0 01-1.657-.381zm-5.358-3.665l10.498 3.045.06 2.831-10.362 3.482-.052-2.496 2.466-.691-.067-3.184-2.492-.588-.051-2.4zm-.442 15.738l7.826 1.322-.32 1.893-1.399-.074-.011.063c.478.373.809.78.994 1.222.196.445.26.866.192 1.266a2.75 2.75 0 01-.14.544 1.238 1.238 0 01-.175.36l-1.939-.717a2.922 2.922 0 00.27-.83c.049-.295-.009-.624-.175-.987-.157-.351-.48-.676-.971-.975l-4.543-.768.391-2.319zm-3.68 14.213c.322-.927.821-1.499 1.495-1.717.67-.207 1.439-.16 2.305.141l3.038 1.056.357-1.027 1.648.572-.309 1.18 1.905.951-.641 1.844-1.994-.694-.626 1.799-1.738-.605.626-1.798-3.008-1.046c-.423-.147-.76-.168-1.011-.063-.244.118-.417.323-.519.615a1.599 1.599 0 00-.081.379c-.015.141-.02.27-.015.384l-1.738-.214c.006-.213.028-.471.066-.774.034-.293.114-.621.24-.983zm-3.674 9.138l7.818 2.407-1.208 2-3.547-1.247a49.126 49.126 0 01-1.09-.454 60.228 60.228 0 00-1.105-.461l-.033.054c.308.274.615.54.919.799.3.268.584.54.854.815l2.694 2.657-1.051 1.739-3.613-1.137a25.42 25.42 0 01-1.132-.385 35.113 35.113 0 01-1.137-.407l-.034.054c.309.274.616.528.923.764.301.244.601.5.9.768l2.76 2.547-1.126 1.863-5.806-5.735 1.424-2.355 3.083 1.022 1.075.388 1.134.443.033-.055c-.326-.285-.633-.551-.919-.799a20.666 20.666 0 01-.859-.743l-2.347-2.242 1.39-2.3zm-11.698 15.672a3.976 3.976 0 011.667-1.038 3.804 3.804 0 012.014-.037c.704.175 1.372.566 2.002 1.173.637.614 1.053 1.267 1.247 1.957a3.69 3.69 0 01.026 2.003 3.884 3.884 0 01-.964 1.715 3.78 3.78 0 01-1.667 1.015 3.678 3.678 0 01-2.002.049c-.697-.168-1.365-.559-2.002-1.174-.63-.606-1.046-1.259-1.247-1.957a3.797 3.797 0 01-.038-2.013 3.887 3.887 0 01.964-1.693zm1.371 1.321c-.333.346-.438.748-.317 1.206.13.465.44.934.932 1.408.499.481.98.774 1.442.878.462.105.86-.016 1.193-.361.34-.354.45-.759.328-1.217-.129-.45-.443-.916-.943-1.397-.491-.474-.968-.77-1.431-.89-.462-.104-.863.02-1.204.373zm-8.813 5.674l4.629 6.446-1.56 1.12-.942-1.038-.052.038c.078.601.026 1.124-.154 1.568-.173.453-.425.798-.754 1.034a2.712 2.712 0 01-.483.288 1.25 1.25 0 01-.377.133l-.873-1.875a2.778 2.778 0 00.776-.4c.243-.174.433-.448.571-.823.135-.36.134-.819-.004-1.377l-2.688-3.742 1.911-1.372zm-9.745 6.36l4.793 10.14-2.069.978-2.748-5.816-.058.028-.924 3.923-2.315 1.094 1.122-4.141-4.701-2.945 2.3-1.087 2.94 2.026.425-1.458-.834-1.765 2.069-.977zm-15.916 5.861a3.98 3.98 0 011.963.001 3.805 3.805 0 011.728 1.034c.505.522.864 1.207 1.078 2.055.216.859.223 1.632.022 2.321a3.688 3.688 0 01-1.037 1.713 3.878 3.878 0 01-1.726.945 3.778 3.778 0 01-1.952-.021 3.676 3.676 0 01-1.724-1.018c-.503-.511-.862-1.197-1.078-2.055-.213-.848-.22-1.622-.023-2.321a3.808 3.808 0 011.034-1.728 3.887 3.887 0 011.714-.926zm.463 1.847c-.465.117-.767.402-.906.855-.137.463-.122 1.025.045 1.688.169.672.422 1.175.758 1.508.337.333.738.441 1.204.324.476-.119.783-.406.922-.859.129-.45.109-1.011-.06-1.684-.167-.662-.415-1.166-.744-1.512-.336-.333-.743-.44-1.219-.32zm-10.894.164l.439 6.08 1.053-.076.126 1.739-1.048.156.031.431a3.944 3.944 0 01-.176 1.553 2.4 2.4 0 01-.846 1.168c-.406.307-.965.487-1.678.538-.33.024-.635.014-.916-.03a5.62 5.62 0 01-.684-.143l.306-1.755a2 2 0 00.423.082c.14.022.275.028.402.019.288-.021.504-.127.651-.32.147-.181.206-.474.177-.879l-.034-.478-1.42.102-.133-1.835 1.42-.103-.439-6.08 2.346-.169zm-13.299-.222c.977.087 1.653.43 2.028 1.031.365.6.507 1.357.426 2.27l-.284 3.204 1.084.096-.154 1.737-1.22-.012-.456 2.08-1.945-.172.186-2.104-1.896-.167.162-1.833 1.897.167.28-3.171c.04-.446-.022-.778-.185-.996-.174-.208-.415-.326-.724-.353a1.524 1.524 0 00-.386.014 2.455 2.455 0 00-.377.079l-.215-1.738a8.13 8.13 0 01.766-.125 4.7 4.7 0 011.012-.007zm-8.501-1.052l-3.062 10.79-2.262-.642.75-2.647.497-1.339a6.01 6.01 0 01-1.201.424c-.454.115-.938.1-1.45-.046-.832-.236-1.354-.683-1.566-1.342-.225-.652-.203-1.455.068-2.409l1.345-4.741 2.263.642-1.262 4.449c-.157.554-.188.955-.093 1.204.086.246.293.416.621.509.288.081.553.085.796.009.24-.064.517-.18.83-.346l1.463-5.157 2.263.642zm-16.884-6.48c.672.348 1.202.81 1.59 1.383.387.574.594 1.216.622 1.927.027.712-.16 1.455-.563 2.232-.398.767-.896 1.344-1.493 1.731a3.837 3.837 0 01-1.906.615 3.491 3.491 0 01-1.84-.378c-.672-.349-1.148-.788-1.426-1.317a2.99 2.99 0 01-.368-1.723c.033-.619.217-1.251.55-1.895a5.766 5.766 0 01.565-.879l4.218 2.189c.17-.561.154-1.05-.05-1.468-.208-.409-.544-.733-1.008-.974-.502-.26-1.09-.367-1.763-.32l-.04-1.625c.487-.059.99-.045 1.509.044a4.76 4.76 0 011.403.458zm-.752 5.27l-2.542-1.319c-.201.388-.271.754-.21 1.099.048.349.28.631.696.847.322.167.67.204 1.044.109.368-.085.706-.331 1.012-.736zm-8.995-11.028l-3.608 7.342-1.784-1.508 1.79-3.306c.205-.343.411-.678.619-1.006.207-.328.417-.667.63-1.018l-.05-.041c-.318.261-.63.522-.933.782a18.89 18.89 0 01-.939.715l-3.048 2.242-1.552-1.311 1.692-3.389c.181-.364.367-.716.558-1.058.183-.348.376-.701.58-1.059l-.048-.041a16.87 16.87 0 00-.899.79 24.09 24.09 0 01-.9.769l-2.95 2.325-1.662-1.405 6.577-4.832 2.102 1.776-1.495 2.885-.552 1-.616 1.051.05.041.932-.782c.282-.251.572-.495.87-.732l2.583-1.965 2.053 1.735zM25.204 123.57c.456.605.735 1.25.837 1.934a3.624 3.624 0 01-.27 2.007c-.283.654-.773 1.244-1.471 1.771-.69.52-1.388.826-2.094.917a3.836 3.836 0 01-1.985-.267 3.495 3.495 0 01-1.497-1.135c-.456-.605-.695-1.206-.718-1.803-.038-.6.1-1.171.412-1.713.297-.545.735-1.036 1.314-1.473a5.814 5.814 0 01.888-.549l2.861 3.794c.396-.432.592-.88.589-1.345-.012-.459-.175-.897-.49-1.314-.34-.452-.824-.801-1.452-1.049l.665-1.484c.465.157.913.387 1.342.691.43.304.786.644 1.069 1.018zM22.252 128l-1.724-2.286c-.35.263-.57.563-.664.901-.108.335-.02.69.262 1.065.218.289.517.472.894.548.37.082.78.006 1.232-.228zm-4.098-16.002c.33.682.479 1.368.446 2.06a3.623 3.623 0 01-.654 1.916c-.404.587-1 1.07-1.786 1.452-.778.376-1.522.541-2.232.493a3.834 3.834 0 01-1.896-.646 3.496 3.496 0 01-1.248-1.405c-.33-.681-.449-1.317-.355-1.908.08-.595.324-1.128.736-1.6.397-.477.922-.873 1.575-1.19.183-.088.37-.167.561-.236.182-.064.321-.108.417-.13l2.07 4.277c.473-.347.752-.749.84-1.206.076-.452.001-.914-.227-1.384-.246-.509-.653-.946-1.22-1.311l.94-1.326c.426.244.82.557 1.182.938.363.382.646.784.85 1.206zm-3.755 3.773l-1.248-2.577c-.394.19-.669.442-.826.755-.17.308-.154.673.05 1.095.159.327.416.564.772.711.346.153.763.158 1.252.016zm-.204-13.008L3.344 105.6l-.579-2.214 6.223-1.626-.016-.062-3.685-1.633-.648-2.477 3.862 1.868 3.764-4.077.643 2.462-2.534 2.515 1.354.687 1.888-.493.579 2.213z" fill="#fff"/></svg>